<?xml version="1.0" encoding="UTF-8"?>
<svg width="14px" height="16px" viewBox="0 0 14 16" version="1.1" xmlns="http://www.w3.org/2000/svg" xmlns:xlink="http://www.w3.org/1999/xlink">
    <title>calendar@1x</title>
    <g id="1.-Design" stroke="none" stroke-width="1" fill="none" fill-rule="evenodd">
        <g id="Reportáž" transform="translate(-444.000000, -2227.000000)" fill="#0079C5" fill-rule="nonzero">
            <g id="CONTENT" transform="translate(280.000000, 144.000000)">
                <g id="info" transform="translate(164.000000, 2066.000000)">
                    <g id="calendar" transform="translate(0.000000, 17.000000)">
                        <path d="M0.375,6 L13.625,6 C13.831,6 14,6.169 14,6.375 L14,14.5 C14,15.328 13.328,16 12.5,16 L1.5,16 C0.672,16 0,15.328 0,14.5 L0,6.375 C0,6.169 0.169,6 0.375,6 Z M14,4.625 L14,3.5 C14,2.672 13.328,2 12.5,2 L11,2 L11,0.375 C11,0.169 10.831,0 10.625,0 L9.375,0 C9.169,0 9,0.169 9,0.375 L9,2 L5,2 L5,0.375 C5,0.169 4.831,0 4.625,0 L3.375,0 C3.169,0 3,0.169 3,0.375 L3,2 L1.5,2 C0.672,2 0,2.672 0,3.5 L0,4.625 C0,4.831 0.169,5 0.375,5 L13.625,5 C13.831,5 14,4.831 14,4.625 Z" id="Shape"></path>
                    </g>
                </g>
            </g>
        </g>
    </g>
</svg>