<svg width="24" height="24" viewBox="0 0 24 24" fill="#0079c5" xmlns="http://www.w3.org/2000/svg">
<path d="M14.2969 12C14.2969 13.2686 13.2686 14.2969 12 14.2969C10.7314 14.2969 9.70312 13.2686 9.70312 12C9.70312 10.7314 10.7314 9.70312 12 9.70312C13.2686 9.70312 14.2969 10.7314 14.2969 12Z" fill="#fff"/>
<path fill-rule="evenodd" clip-rule="evenodd" d="M17.3713 7.93616C17.2609 7.63696 17.0848 7.36615 16.8559 7.14386C16.6336 6.91498 16.363 6.73883 16.0636 6.62842C15.8208 6.53412 15.4561 6.42188 14.7842 6.3913C14.0575 6.35815 13.8396 6.35101 11.9998 6.35101C10.1597 6.35101 9.94183 6.35797 9.21527 6.39111C8.54346 6.42188 8.17853 6.53412 7.93591 6.62842C7.63654 6.73883 7.36572 6.91498 7.14362 7.14386C6.91473 7.36615 6.73859 7.63678 6.62799 7.93616C6.53369 8.17896 6.42145 8.54388 6.39087 9.2157C6.35773 9.94226 6.35059 10.1602 6.35059 12.0002C6.35059 13.84 6.35773 14.0579 6.39087 14.7847C6.42145 15.4565 6.53369 15.8212 6.62799 16.064C6.73859 16.3634 6.91455 16.634 7.14343 16.8563C7.36572 17.0852 7.63635 17.2614 7.93573 17.3718C8.17853 17.4662 8.54346 17.5785 9.21527 17.6091C9.94183 17.6422 10.1595 17.6492 11.9996 17.6492C13.8398 17.6492 14.0577 17.6422 14.7841 17.6091C15.4559 17.5785 15.8208 17.4662 16.0636 17.3718C16.6646 17.14 17.1395 16.665 17.3713 16.064C17.4656 15.8212 17.5779 15.4565 17.6086 14.7847C17.6418 14.0579 17.6487 13.84 17.6487 12.0002C17.6487 10.1602 17.6418 9.94226 17.6086 9.2157C17.5781 8.54388 17.4658 8.17896 17.3713 7.93616ZM11.9998 15.5383C10.0455 15.5383 8.46124 13.9543 8.46124 12C8.46124 10.0457 10.0455 8.46167 11.9998 8.46167C13.9539 8.46167 15.5381 10.0457 15.5381 12C15.5381 13.9543 13.9539 15.5383 11.9998 15.5383ZM14.8511 8.32178C14.8511 8.77844 15.2213 9.14868 15.678 9.14868C16.1346 9.14868 16.5047 8.77844 16.5049 8.32178C16.5049 7.86511 16.1346 7.49487 15.678 7.49487C15.2213 7.49487 14.8511 7.86511 14.8511 8.32178Z" fill="#fff"/>
<path fill-rule="evenodd" clip-rule="evenodd" d="M0 12C0 5.3736 5.3736 0 12 0C18.6264 0 24 5.3736 24 12C24 18.6264 18.6264 24 12 24C5.3736 24 0 18.6264 0 12ZM18.5288 16.5135C18.6991 16.0752 18.8157 15.5744 18.8491 14.8409C18.8828 14.1061 18.8906 13.8713 18.8906 12C18.8906 10.1287 18.8828 9.89392 18.8492 9.15912C18.8157 8.4256 18.6993 7.9248 18.5288 7.48645C18.356 7.02667 18.0846 6.61029 17.7341 6.26605C17.3899 5.91541 16.9733 5.64404 16.5135 5.47101C16.0752 5.3009 15.5744 5.18445 14.8409 5.15112C14.1061 5.11743 13.8713 5.10938 12 5.10938C10.1287 5.10938 9.89392 5.11743 9.15912 5.15094C8.4256 5.18445 7.9248 5.3009 7.48645 5.47119C7.02667 5.64423 6.61011 5.91541 6.26605 6.26605C5.91541 6.61011 5.64404 7.02667 5.47101 7.48645C5.30072 7.9248 5.18427 8.4256 5.15094 9.15912C5.11725 9.89392 5.10938 10.1287 5.10938 12C5.10938 13.8713 5.11725 14.1061 5.15112 14.8411C5.18445 15.5744 5.30109 16.0754 5.47137 16.5135C5.64441 16.9733 5.91559 17.3899 6.26605 17.7339C6.61029 18.0846 7.02667 18.3558 7.48663 18.5288C7.9248 18.6991 8.42578 18.8156 9.15912 18.8491C9.8941 18.8826 10.1287 18.8906 12.0002 18.8906C13.8715 18.8906 14.1063 18.8826 14.8411 18.8491C15.5744 18.8156 16.0754 18.6991 16.5135 18.5288C17.4391 18.1708 18.1708 17.4391 18.5288 16.5135Z" fill="#fff"/>
</svg>
