<svg width="16" height="16" viewBox="0 0 16 16" fill="#00263d" xmlns="http://www.w3.org/2000/svg">
<path fill-rule="evenodd" clip-rule="evenodd" d="M0 8C0 3.5824 3.5824 0 8 0C12.4176 0 16 3.5824 16 8C16 12.4176 12.4176 16 8 16C3.5824 16 0 12.4176 0 8ZM11.658 6.47485C11.658 6.39539 11.6562 6.31628 11.6527 6.23755C12.0112 5.97839 12.3229 5.65491 12.5686 5.28662C12.2396 5.43286 11.8856 5.53137 11.5142 5.57581C11.8933 5.34839 12.1843 4.98877 12.3217 4.56018C11.9668 4.77051 11.574 4.92334 11.1556 5.00586C10.8206 4.64893 10.3435 4.42566 9.81531 4.42566C8.80127 4.42566 7.97888 5.24805 7.97888 6.26172C7.97888 6.40576 7.99512 6.5459 8.02661 6.68042C6.50049 6.60364 5.14722 5.87292 4.2417 4.76184C4.08398 5.0332 3.99304 5.34839 3.99304 5.68481C3.99304 6.3219 4.31714 6.88428 4.81018 7.21326C4.50891 7.20398 4.22595 7.12122 3.97852 6.98364C3.97827 6.99133 3.97827 6.99878 3.97827 7.00708C3.97827 7.89624 4.61121 8.63879 5.45142 8.80701C5.29712 8.84912 5.13477 8.8717 4.96716 8.8717C4.84912 8.8717 4.73401 8.85999 4.62207 8.8385C4.85596 9.56812 5.53369 10.099 6.33752 10.1139C5.70898 10.6064 4.91724 10.8999 4.05688 10.8999C3.90881 10.8999 3.76257 10.8915 3.6189 10.8745C4.43152 11.3954 5.39648 11.6993 6.43347 11.6993C9.81104 11.6992 11.658 8.90125 11.658 6.47485Z" fill="#0079c5"/>
</svg>
