<?xml version="1.0" encoding="UTF-8"?>
<svg width="16px" height="16px" viewBox="0 0 16 16" version="1.1" xmlns="http://www.w3.org/2000/svg" xmlns:xlink="http://www.w3.org/1999/xlink">
    <title>user@1x</title>
    <g id="1.-Design" stroke="none" stroke-width="1" fill="none" fill-rule="evenodd">
        <g id="Reportáž" transform="translate(-573.000000, -2227.000000)" fill="#0079C5" fill-rule="nonzero">
            <g id="CONTENT" transform="translate(280.000000, 144.000000)">
                <g id="info" transform="translate(164.000000, 2066.000000)">
                    <g id="user" transform="translate(129.000000, 17.000000)">
                        <path d="M8,0 C3.58,0 0,3.58 0,8 C0,12.42 3.58,16 8,16 C12.42,16 16,12.42 16,8 C16,3.58 12.42,0 8,0 Z M8,3.097 C9.568,3.097 10.839,4.367 10.839,5.935 C10.839,7.503 9.568,8.775 8,8.775 C6.432,8.775 5.161,7.503 5.161,5.935 C5.161,4.368 6.432,3.097 8,3.097 Z M8,14.194 C6.106,14.194 4.41,13.335 3.274,11.994 C3.881,10.852 5.068,10.064 6.452,10.064 C6.529,10.064 6.606,10.077 6.681,10.1 C7.1,10.235 7.539,10.323 8,10.323 C8.461,10.323 8.903,10.235 9.32,10.1 C9.394,10.077 9.471,10.065 9.548,10.065 C10.932,10.065 12.119,10.852 12.726,11.994 C11.59,13.335 9.894,14.194 8,14.194 Z" id="Shape"></path>
                    </g>
                </g>
            </g>
        </g>
    </g>
</svg>